<svg width="204" height="93" viewBox="0 0 204 93" fill="none" xmlns="http://www.w3.org/2000/svg">
<circle cx="46.5" cy="46.5" r="46.5" fill="#283976"/>
<path d="M49.6562 34.3438V38H38.2031V34.3438H49.6562ZM39.7188 15.25V38H35.0312V15.25H39.7188ZM61.1875 34.1875V26.6562C61.1875 26.1146 61.099 25.651 60.9219 25.2656C60.7448 24.8698 60.4688 24.5625 60.0938 24.3438C59.7292 24.125 59.2552 24.0156 58.6719 24.0156C58.1719 24.0156 57.7396 24.1042 57.375 24.2812C57.0104 24.4479 56.7292 24.6927 56.5312 25.0156C56.3333 25.3281 56.2344 25.6979 56.2344 26.125H51.7344C51.7344 25.4062 51.901 24.724 52.2344 24.0781C52.5677 23.4323 53.0521 22.8646 53.6875 22.375C54.3229 21.875 55.0781 21.4844 55.9531 21.2031C56.8385 20.9219 57.8281 20.7812 58.9219 20.7812C60.2344 20.7812 61.401 21 62.4219 21.4375C63.4427 21.875 64.2448 22.5312 64.8281 23.4062C65.4219 24.2812 65.7188 25.375 65.7188 26.6875V33.9219C65.7188 34.849 65.776 35.6094 65.8906 36.2031C66.0052 36.7865 66.1719 37.2969 66.3906 37.7344V38H61.8438C61.625 37.5417 61.4583 36.9688 61.3438 36.2812C61.2396 35.5833 61.1875 34.8854 61.1875 34.1875ZM61.7812 27.7031L61.8125 30.25H59.2969C58.7031 30.25 58.1875 30.3177 57.75 30.4531C57.3125 30.5885 56.9531 30.7812 56.6719 31.0312C56.3906 31.2708 56.1823 31.5521 56.0469 31.875C55.9219 32.1979 55.8594 32.5521 55.8594 32.9375C55.8594 33.3229 55.9479 33.6719 56.125 33.9844C56.3021 34.2865 56.5573 34.526 56.8906 34.7031C57.224 34.8698 57.6146 34.9531 58.0625 34.9531C58.7396 34.9531 59.3281 34.8177 59.8281 34.5469C60.3281 34.276 60.7135 33.9427 60.9844 33.5469C61.2656 33.151 61.4115 32.776 61.4219 32.4219L62.6094 34.3281C62.4427 34.7552 62.2135 35.1979 61.9219 35.6562C61.6406 36.1146 61.2812 36.5469 60.8438 36.9531C60.4062 37.349 59.8802 37.6771 59.2656 37.9375C58.651 38.1875 57.9219 38.3125 57.0781 38.3125C56.0052 38.3125 55.0312 38.099 54.1562 37.6719C53.2917 37.2344 52.6042 36.6354 52.0938 35.875C51.5938 35.1042 51.3438 34.2292 51.3438 33.25C51.3438 32.3646 51.5104 31.5781 51.8438 30.8906C52.1771 30.2031 52.6667 29.625 53.3125 29.1562C53.9688 28.6771 54.7865 28.3177 55.7656 28.0781C56.7448 27.8281 57.8802 27.7031 59.1719 27.7031H61.7812ZM40.0156 53.25V76H35.3438V53.25H40.0156ZM48.5312 62.7031V76H44.0312V59.0938H48.25L48.5312 62.7031ZM47.875 66.9531H46.6562C46.6562 65.7031 46.8177 64.5781 47.1406 63.5781C47.4635 62.5677 47.9167 61.7083 48.5 61C49.0833 60.2812 49.776 59.7344 50.5781 59.3594C51.3906 58.974 52.2969 58.7812 53.2969 58.7812C54.0885 58.7812 54.8125 58.8958 55.4688 59.125C56.125 59.3542 56.6875 59.7188 57.1562 60.2188C57.6354 60.7188 58 61.3802 58.25 62.2031C58.5104 63.026 58.6406 64.0312 58.6406 65.2188V76H54.1094V65.2031C54.1094 64.4531 54.0052 63.8698 53.7969 63.4531C53.5885 63.0365 53.2812 62.7448 52.875 62.5781C52.4792 62.401 51.9896 62.3125 51.4062 62.3125C50.8021 62.3125 50.276 62.4323 49.8281 62.6719C49.3906 62.9115 49.026 63.2448 48.7344 63.6719C48.4531 64.0885 48.2396 64.5781 48.0938 65.1406C47.9479 65.7031 47.875 66.3073 47.875 66.9531ZM66.5625 62.5938V76H62.0469V59.0938H66.2812L66.5625 62.5938ZM65.9375 66.9531H64.6875C64.6875 65.776 64.8281 64.6927 65.1094 63.7031C65.401 62.7031 65.8229 61.8385 66.375 61.1094C66.9375 60.3698 67.6302 59.7969 68.4531 59.3906C69.276 58.9844 70.2292 58.7812 71.3125 58.7812C72.0625 58.7812 72.75 58.8958 73.375 59.125C74 59.3438 74.5365 59.6927 74.9844 60.1719C75.4427 60.6406 75.7969 61.2552 76.0469 62.0156C76.2969 62.7656 76.4219 63.6667 76.4219 64.7188V76H71.9219V65.2188C71.9219 64.4479 71.8177 63.8542 71.6094 63.4375C71.401 63.0208 71.1042 62.7292 70.7188 62.5625C70.3438 62.3958 69.8906 62.3125 69.3594 62.3125C68.776 62.3125 68.2656 62.4323 67.8281 62.6719C67.401 62.9115 67.0469 63.2448 66.7656 63.6719C66.4844 64.0885 66.276 64.5781 66.1406 65.1406C66.0052 65.7031 65.9375 66.3073 65.9375 66.9531ZM76 66.4375L74.3906 66.6406C74.3906 65.5365 74.526 64.5104 74.7969 63.5625C75.0781 62.6146 75.4896 61.7812 76.0312 61.0625C76.5833 60.3438 77.2656 59.7865 78.0781 59.3906C78.8906 58.9844 79.8281 58.7812 80.8906 58.7812C81.7031 58.7812 82.4427 58.901 83.1094 59.1406C83.776 59.3698 84.3438 59.7396 84.8125 60.25C85.2917 60.75 85.6562 61.4062 85.9062 62.2188C86.1667 63.0312 86.2969 64.026 86.2969 65.2031V76H81.7812V65.2031C81.7812 64.4219 81.6771 63.8281 81.4688 63.4219C81.2708 63.0052 80.9792 62.7188 80.5938 62.5625C80.2188 62.3958 79.7708 62.3125 79.25 62.3125C78.7083 62.3125 78.2344 62.4219 77.8281 62.6406C77.4219 62.849 77.0833 63.1406 76.8125 63.5156C76.5417 63.8906 76.3385 64.3281 76.2031 64.8281C76.0677 65.3177 76 65.8542 76 66.4375ZM89.0625 67.7188V67.3906C89.0625 66.151 89.2396 65.0104 89.5938 63.9688C89.9479 62.9167 90.4635 62.0052 91.1406 61.2344C91.8177 60.4635 92.651 59.8646 93.6406 59.4375C94.6302 59 95.7656 58.7812 97.0469 58.7812C98.3281 58.7812 99.4688 59 100.469 59.4375C101.469 59.8646 102.307 60.4635 102.984 61.2344C103.672 62.0052 104.193 62.9167 104.547 63.9688C104.901 65.0104 105.078 66.151 105.078 67.3906V67.7188C105.078 68.9479 104.901 70.0885 104.547 71.1406C104.193 72.1823 103.672 73.0938 102.984 73.875C102.307 74.6458 101.474 75.2448 100.484 75.6719C99.4948 76.099 98.3594 76.3125 97.0781 76.3125C95.7969 76.3125 94.6562 76.099 93.6562 75.6719C92.6667 75.2448 91.8281 74.6458 91.1406 73.875C90.4635 73.0938 89.9479 72.1823 89.5938 71.1406C89.2396 70.0885 89.0625 68.9479 89.0625 67.7188ZM93.5625 67.3906V67.7188C93.5625 68.4271 93.625 69.0885 93.75 69.7031C93.875 70.3177 94.0729 70.8594 94.3438 71.3281C94.625 71.7865 94.9896 72.1458 95.4375 72.4062C95.8854 72.6667 96.4323 72.7969 97.0781 72.7969C97.7031 72.7969 98.2396 72.6667 98.6875 72.4062C99.1354 72.1458 99.4948 71.7865 99.7656 71.3281C100.036 70.8594 100.234 70.3177 100.359 69.7031C100.495 69.0885 100.562 68.4271 100.562 67.7188V67.3906C100.562 66.7031 100.495 66.0573 100.359 65.4531C100.234 64.8385 100.031 64.2969 99.75 63.8281C99.4792 63.349 99.1198 62.974 98.6719 62.7031C98.224 62.4323 97.6823 62.2969 97.0469 62.2969C96.4115 62.2969 95.8698 62.4323 95.4219 62.7031C94.9844 62.974 94.625 63.349 94.3438 63.8281C94.0729 64.2969 93.875 64.8385 93.75 65.4531C93.625 66.0573 93.5625 66.7031 93.5625 67.3906ZM107.844 52H112.344V72.125L111.891 76H107.844V52ZM123.047 67.375V67.7031C123.047 68.9635 122.911 70.1198 122.641 71.1719C122.38 72.224 121.974 73.1354 121.422 73.9062C120.87 74.6667 120.182 75.2604 119.359 75.6875C118.547 76.1042 117.589 76.3125 116.484 76.3125C115.453 76.3125 114.557 76.1042 113.797 75.6875C113.047 75.2708 112.417 74.6823 111.906 73.9219C111.396 73.1615 110.984 72.2708 110.672 71.25C110.359 70.2292 110.125 69.1146 109.969 67.9062V67.1875C110.125 65.9792 110.359 64.8646 110.672 63.8438C110.984 62.8229 111.396 61.9323 111.906 61.1719C112.417 60.4115 113.047 59.8229 113.797 59.4062C114.547 58.9896 115.432 58.7812 116.453 58.7812C117.568 58.7812 118.536 58.9948 119.359 59.4219C120.193 59.8385 120.88 60.4323 121.422 61.2031C121.974 61.9635 122.38 62.8698 122.641 63.9219C122.911 64.9635 123.047 66.1146 123.047 67.375ZM118.547 67.7031V67.375C118.547 66.6875 118.495 66.0417 118.391 65.4375C118.297 64.8229 118.13 64.2865 117.891 63.8281C117.651 63.3594 117.323 62.9896 116.906 62.7188C116.5 62.4479 115.974 62.3125 115.328 62.3125C114.714 62.3125 114.193 62.4167 113.766 62.625C113.339 62.8333 112.984 63.125 112.703 63.5C112.432 63.875 112.229 64.3229 112.094 64.8438C111.958 65.3542 111.875 65.9167 111.844 66.5312V68.5781C111.875 69.401 112.01 70.1302 112.25 70.7656C112.5 71.3906 112.875 71.8854 113.375 72.25C113.885 72.6042 114.547 72.7812 115.359 72.7812C115.995 72.7812 116.521 72.6562 116.938 72.4062C117.354 72.1562 117.677 71.8021 117.906 71.3438C118.146 70.8854 118.312 70.349 118.406 69.7344C118.5 69.1094 118.547 68.4323 118.547 67.7031ZM130.594 59.0938V76H126.078V59.0938H130.594ZM125.797 54.6875C125.797 54.0312 126.026 53.4896 126.484 53.0625C126.943 52.6354 127.557 52.4219 128.328 52.4219C129.089 52.4219 129.698 52.6354 130.156 53.0625C130.625 53.4896 130.859 54.0312 130.859 54.6875C130.859 55.3438 130.625 55.8854 130.156 56.3125C129.698 56.7396 129.089 56.9531 128.328 56.9531C127.557 56.9531 126.943 56.7396 126.484 56.3125C126.026 55.8854 125.797 55.3438 125.797 54.6875ZM139.062 52V76H134.547V52H139.062ZM147.531 59.0938V76H143.016V59.0938H147.531ZM142.734 54.6875C142.734 54.0312 142.964 53.4896 143.422 53.0625C143.88 52.6354 144.495 52.4219 145.266 52.4219C146.026 52.4219 146.635 52.6354 147.094 53.0625C147.562 53.4896 147.797 54.0312 147.797 54.6875C147.797 55.3438 147.562 55.8854 147.094 56.3125C146.635 56.7396 146.026 56.9531 145.266 56.9531C144.495 56.9531 143.88 56.7396 143.422 56.3125C142.964 55.8854 142.734 55.3438 142.734 54.6875ZM160.375 72.1875V64.6562C160.375 64.1146 160.286 63.651 160.109 63.2656C159.932 62.8698 159.656 62.5625 159.281 62.3438C158.917 62.125 158.443 62.0156 157.859 62.0156C157.359 62.0156 156.927 62.1042 156.562 62.2812C156.198 62.4479 155.917 62.6927 155.719 63.0156C155.521 63.3281 155.422 63.6979 155.422 64.125H150.922C150.922 63.4062 151.089 62.724 151.422 62.0781C151.755 61.4323 152.24 60.8646 152.875 60.375C153.51 59.875 154.266 59.4844 155.141 59.2031C156.026 58.9219 157.016 58.7812 158.109 58.7812C159.422 58.7812 160.589 59 161.609 59.4375C162.63 59.875 163.432 60.5312 164.016 61.4062C164.609 62.2812 164.906 63.375 164.906 64.6875V71.9219C164.906 72.849 164.964 73.6094 165.078 74.2031C165.193 74.7865 165.359 75.2969 165.578 75.7344V76H161.031C160.812 75.5417 160.646 74.9688 160.531 74.2812C160.427 73.5833 160.375 72.8854 160.375 72.1875ZM160.969 65.7031L161 68.25H158.484C157.891 68.25 157.375 68.3177 156.938 68.4531C156.5 68.5885 156.141 68.7812 155.859 69.0312C155.578 69.2708 155.37 69.5521 155.234 69.875C155.109 70.1979 155.047 70.5521 155.047 70.9375C155.047 71.3229 155.135 71.6719 155.312 71.9844C155.49 72.2865 155.745 72.526 156.078 72.7031C156.411 72.8698 156.802 72.9531 157.25 72.9531C157.927 72.9531 158.516 72.8177 159.016 72.5469C159.516 72.276 159.901 71.9427 160.172 71.5469C160.453 71.151 160.599 70.776 160.609 70.4219L161.797 72.3281C161.63 72.7552 161.401 73.1979 161.109 73.6562C160.828 74.1146 160.469 74.5469 160.031 74.9531C159.594 75.349 159.068 75.6771 158.453 75.9375C157.839 76.1875 157.109 76.3125 156.266 76.3125C155.193 76.3125 154.219 76.099 153.344 75.6719C152.479 75.2344 151.792 74.6354 151.281 73.875C150.781 73.1042 150.531 72.2292 150.531 71.25C150.531 70.3646 150.698 69.5781 151.031 68.8906C151.365 68.2031 151.854 67.625 152.5 67.1562C153.156 66.6771 153.974 66.3177 154.953 66.0781C155.932 65.8281 157.068 65.7031 158.359 65.7031H160.969ZM172.875 62.7812V76H168.375V59.0938H172.609L172.875 62.7812ZM177.969 58.9844L177.891 63.1562C177.672 63.125 177.406 63.099 177.094 63.0781C176.792 63.0469 176.516 63.0312 176.266 63.0312C175.63 63.0312 175.078 63.1146 174.609 63.2812C174.151 63.4375 173.766 63.6719 173.453 63.9844C173.151 64.2969 172.922 64.6771 172.766 65.125C172.62 65.5729 172.536 66.0833 172.516 66.6562L171.609 66.375C171.609 65.2812 171.719 64.276 171.938 63.3594C172.156 62.4323 172.474 61.625 172.891 60.9375C173.318 60.25 173.839 59.7188 174.453 59.3438C175.068 58.9688 175.771 58.7812 176.562 58.7812C176.812 58.7812 177.068 58.8021 177.328 58.8438C177.589 58.875 177.802 58.9219 177.969 58.9844ZM184.844 59.0938V76H180.328V59.0938H184.844ZM180.047 54.6875C180.047 54.0312 180.276 53.4896 180.734 53.0625C181.193 52.6354 181.807 52.4219 182.578 52.4219C183.339 52.4219 183.948 52.6354 184.406 53.0625C184.875 53.4896 185.109 54.0312 185.109 54.6875C185.109 55.3438 184.875 55.8854 184.406 56.3125C183.948 56.7396 183.339 56.9531 182.578 56.9531C181.807 56.9531 181.193 56.7396 180.734 56.3125C180.276 55.8854 180.047 55.3438 180.047 54.6875ZM197.688 72.1875V64.6562C197.688 64.1146 197.599 63.651 197.422 63.2656C197.245 62.8698 196.969 62.5625 196.594 62.3438C196.229 62.125 195.755 62.0156 195.172 62.0156C194.672 62.0156 194.24 62.1042 193.875 62.2812C193.51 62.4479 193.229 62.6927 193.031 63.0156C192.833 63.3281 192.734 63.6979 192.734 64.125H188.234C188.234 63.4062 188.401 62.724 188.734 62.0781C189.068 61.4323 189.552 60.8646 190.188 60.375C190.823 59.875 191.578 59.4844 192.453 59.2031C193.339 58.9219 194.328 58.7812 195.422 58.7812C196.734 58.7812 197.901 59 198.922 59.4375C199.943 59.875 200.745 60.5312 201.328 61.4062C201.922 62.2812 202.219 63.375 202.219 64.6875V71.9219C202.219 72.849 202.276 73.6094 202.391 74.2031C202.505 74.7865 202.672 75.2969 202.891 75.7344V76H198.344C198.125 75.5417 197.958 74.9688 197.844 74.2812C197.74 73.5833 197.688 72.8854 197.688 72.1875ZM198.281 65.7031L198.312 68.25H195.797C195.203 68.25 194.688 68.3177 194.25 68.4531C193.812 68.5885 193.453 68.7812 193.172 69.0312C192.891 69.2708 192.682 69.5521 192.547 69.875C192.422 70.1979 192.359 70.5521 192.359 70.9375C192.359 71.3229 192.448 71.6719 192.625 71.9844C192.802 72.2865 193.057 72.526 193.391 72.7031C193.724 72.8698 194.115 72.9531 194.562 72.9531C195.24 72.9531 195.828 72.8177 196.328 72.5469C196.828 72.276 197.214 71.9427 197.484 71.5469C197.766 71.151 197.911 70.776 197.922 70.4219L199.109 72.3281C198.943 72.7552 198.714 73.1979 198.422 73.6562C198.141 74.1146 197.781 74.5469 197.344 74.9531C196.906 75.349 196.38 75.6771 195.766 75.9375C195.151 76.1875 194.422 76.3125 193.578 76.3125C192.505 76.3125 191.531 76.099 190.656 75.6719C189.792 75.2344 189.104 74.6354 188.594 73.875C188.094 73.1042 187.844 72.2292 187.844 71.25C187.844 70.3646 188.01 69.5781 188.344 68.8906C188.677 68.2031 189.167 67.625 189.812 67.1562C190.469 66.6771 191.286 66.3177 192.266 66.0781C193.245 65.8281 194.38 65.7031 195.672 65.7031H198.281Z" fill="#283976"/>
<mask id="mask0_71_80" style="mask-type:alpha" maskUnits="userSpaceOnUse" x="0" y="0" width="93" height="93">
<circle cx="46.5" cy="46.5" r="46.5" fill="#283976"/>
</mask>
<g mask="url(#mask0_71_80)">
<path d="M49.6562 34.3438V38H38.2031V34.3438H49.6562ZM39.7188 15.25V38H35.0312V15.25H39.7188ZM61.1875 34.1875V26.6562C61.1875 26.1146 61.099 25.651 60.9219 25.2656C60.7448 24.8698 60.4688 24.5625 60.0938 24.3438C59.7292 24.125 59.2552 24.0156 58.6719 24.0156C58.1719 24.0156 57.7396 24.1042 57.375 24.2812C57.0104 24.4479 56.7292 24.6927 56.5312 25.0156C56.3333 25.3281 56.2344 25.6979 56.2344 26.125H51.7344C51.7344 25.4062 51.901 24.724 52.2344 24.0781C52.5677 23.4323 53.0521 22.8646 53.6875 22.375C54.3229 21.875 55.0781 21.4844 55.9531 21.2031C56.8385 20.9219 57.8281 20.7812 58.9219 20.7812C60.2344 20.7812 61.401 21 62.4219 21.4375C63.4427 21.875 64.2448 22.5312 64.8281 23.4062C65.4219 24.2812 65.7188 25.375 65.7188 26.6875V33.9219C65.7188 34.849 65.776 35.6094 65.8906 36.2031C66.0052 36.7865 66.1719 37.2969 66.3906 37.7344V38H61.8438C61.625 37.5417 61.4583 36.9688 61.3438 36.2812C61.2396 35.5833 61.1875 34.8854 61.1875 34.1875ZM61.7812 27.7031L61.8125 30.25H59.2969C58.7031 30.25 58.1875 30.3177 57.75 30.4531C57.3125 30.5885 56.9531 30.7812 56.6719 31.0312C56.3906 31.2708 56.1823 31.5521 56.0469 31.875C55.9219 32.1979 55.8594 32.5521 55.8594 32.9375C55.8594 33.3229 55.9479 33.6719 56.125 33.9844C56.3021 34.2865 56.5573 34.526 56.8906 34.7031C57.224 34.8698 57.6146 34.9531 58.0625 34.9531C58.7396 34.9531 59.3281 34.8177 59.8281 34.5469C60.3281 34.276 60.7135 33.9427 60.9844 33.5469C61.2656 33.151 61.4115 32.776 61.4219 32.4219L62.6094 34.3281C62.4427 34.7552 62.2135 35.1979 61.9219 35.6562C61.6406 36.1146 61.2812 36.5469 60.8438 36.9531C60.4062 37.349 59.8802 37.6771 59.2656 37.9375C58.651 38.1875 57.9219 38.3125 57.0781 38.3125C56.0052 38.3125 55.0312 38.099 54.1562 37.6719C53.2917 37.2344 52.6042 36.6354 52.0938 35.875C51.5938 35.1042 51.3438 34.2292 51.3438 33.25C51.3438 32.3646 51.5104 31.5781 51.8438 30.8906C52.1771 30.2031 52.6667 29.625 53.3125 29.1562C53.9688 28.6771 54.7865 28.3177 55.7656 28.0781C56.7448 27.8281 57.8802 27.7031 59.1719 27.7031H61.7812ZM40.0156 53.25V76H35.3438V53.25H40.0156ZM48.5312 62.7031V76H44.0312V59.0938H48.25L48.5312 62.7031ZM47.875 66.9531H46.6562C46.6562 65.7031 46.8177 64.5781 47.1406 63.5781C47.4635 62.5677 47.9167 61.7083 48.5 61C49.0833 60.2812 49.776 59.7344 50.5781 59.3594C51.3906 58.974 52.2969 58.7812 53.2969 58.7812C54.0885 58.7812 54.8125 58.8958 55.4688 59.125C56.125 59.3542 56.6875 59.7188 57.1562 60.2188C57.6354 60.7188 58 61.3802 58.25 62.2031C58.5104 63.026 58.6406 64.0312 58.6406 65.2188V76H54.1094V65.2031C54.1094 64.4531 54.0052 63.8698 53.7969 63.4531C53.5885 63.0365 53.2812 62.7448 52.875 62.5781C52.4792 62.401 51.9896 62.3125 51.4062 62.3125C50.8021 62.3125 50.276 62.4323 49.8281 62.6719C49.3906 62.9115 49.026 63.2448 48.7344 63.6719C48.4531 64.0885 48.2396 64.5781 48.0938 65.1406C47.9479 65.7031 47.875 66.3073 47.875 66.9531ZM66.5625 62.5938V76H62.0469V59.0938H66.2812L66.5625 62.5938ZM65.9375 66.9531H64.6875C64.6875 65.776 64.8281 64.6927 65.1094 63.7031C65.401 62.7031 65.8229 61.8385 66.375 61.1094C66.9375 60.3698 67.6302 59.7969 68.4531 59.3906C69.276 58.9844 70.2292 58.7812 71.3125 58.7812C72.0625 58.7812 72.75 58.8958 73.375 59.125C74 59.3438 74.5365 59.6927 74.9844 60.1719C75.4427 60.6406 75.7969 61.2552 76.0469 62.0156C76.2969 62.7656 76.4219 63.6667 76.4219 64.7188V76H71.9219V65.2188C71.9219 64.4479 71.8177 63.8542 71.6094 63.4375C71.401 63.0208 71.1042 62.7292 70.7188 62.5625C70.3438 62.3958 69.8906 62.3125 69.3594 62.3125C68.776 62.3125 68.2656 62.4323 67.8281 62.6719C67.401 62.9115 67.0469 63.2448 66.7656 63.6719C66.4844 64.0885 66.276 64.5781 66.1406 65.1406C66.0052 65.7031 65.9375 66.3073 65.9375 66.9531ZM76 66.4375L74.3906 66.6406C74.3906 65.5365 74.526 64.5104 74.7969 63.5625C75.0781 62.6146 75.4896 61.7812 76.0312 61.0625C76.5833 60.3438 77.2656 59.7865 78.0781 59.3906C78.8906 58.9844 79.8281 58.7812 80.8906 58.7812C81.7031 58.7812 82.4427 58.901 83.1094 59.1406C83.776 59.3698 84.3438 59.7396 84.8125 60.25C85.2917 60.75 85.6562 61.4062 85.9062 62.2188C86.1667 63.0312 86.2969 64.026 86.2969 65.2031V76H81.7812V65.2031C81.7812 64.4219 81.6771 63.8281 81.4688 63.4219C81.2708 63.0052 80.9792 62.7188 80.5938 62.5625C80.2188 62.3958 79.7708 62.3125 79.25 62.3125C78.7083 62.3125 78.2344 62.4219 77.8281 62.6406C77.4219 62.849 77.0833 63.1406 76.8125 63.5156C76.5417 63.8906 76.3385 64.3281 76.2031 64.8281C76.0677 65.3177 76 65.8542 76 66.4375ZM89.0625 67.7188V67.3906C89.0625 66.151 89.2396 65.0104 89.5938 63.9688C89.9479 62.9167 90.4635 62.0052 91.1406 61.2344C91.8177 60.4635 92.651 59.8646 93.6406 59.4375C94.6302 59 95.7656 58.7812 97.0469 58.7812C98.3281 58.7812 99.4688 59 100.469 59.4375C101.469 59.8646 102.307 60.4635 102.984 61.2344C103.672 62.0052 104.193 62.9167 104.547 63.9688C104.901 65.0104 105.078 66.151 105.078 67.3906V67.7188C105.078 68.9479 104.901 70.0885 104.547 71.1406C104.193 72.1823 103.672 73.0938 102.984 73.875C102.307 74.6458 101.474 75.2448 100.484 75.6719C99.4948 76.099 98.3594 76.3125 97.0781 76.3125C95.7969 76.3125 94.6562 76.099 93.6562 75.6719C92.6667 75.2448 91.8281 74.6458 91.1406 73.875C90.4635 73.0938 89.9479 72.1823 89.5938 71.1406C89.2396 70.0885 89.0625 68.9479 89.0625 67.7188ZM93.5625 67.3906V67.7188C93.5625 68.4271 93.625 69.0885 93.75 69.7031C93.875 70.3177 94.0729 70.8594 94.3438 71.3281C94.625 71.7865 94.9896 72.1458 95.4375 72.4062C95.8854 72.6667 96.4323 72.7969 97.0781 72.7969C97.7031 72.7969 98.2396 72.6667 98.6875 72.4062C99.1354 72.1458 99.4948 71.7865 99.7656 71.3281C100.036 70.8594 100.234 70.3177 100.359 69.7031C100.495 69.0885 100.562 68.4271 100.562 67.7188V67.3906C100.562 66.7031 100.495 66.0573 100.359 65.4531C100.234 64.8385 100.031 64.2969 99.75 63.8281C99.4792 63.349 99.1198 62.974 98.6719 62.7031C98.224 62.4323 97.6823 62.2969 97.0469 62.2969C96.4115 62.2969 95.8698 62.4323 95.4219 62.7031C94.9844 62.974 94.625 63.349 94.3438 63.8281C94.0729 64.2969 93.875 64.8385 93.75 65.4531C93.625 66.0573 93.5625 66.7031 93.5625 67.3906ZM107.844 52H112.344V72.125L111.891 76H107.844V52ZM123.047 67.375V67.7031C123.047 68.9635 122.911 70.1198 122.641 71.1719C122.38 72.224 121.974 73.1354 121.422 73.9062C120.87 74.6667 120.182 75.2604 119.359 75.6875C118.547 76.1042 117.589 76.3125 116.484 76.3125C115.453 76.3125 114.557 76.1042 113.797 75.6875C113.047 75.2708 112.417 74.6823 111.906 73.9219C111.396 73.1615 110.984 72.2708 110.672 71.25C110.359 70.2292 110.125 69.1146 109.969 67.9062V67.1875C110.125 65.9792 110.359 64.8646 110.672 63.8438C110.984 62.8229 111.396 61.9323 111.906 61.1719C112.417 60.4115 113.047 59.8229 113.797 59.4062C114.547 58.9896 115.432 58.7812 116.453 58.7812C117.568 58.7812 118.536 58.9948 119.359 59.4219C120.193 59.8385 120.88 60.4323 121.422 61.2031C121.974 61.9635 122.38 62.8698 122.641 63.9219C122.911 64.9635 123.047 66.1146 123.047 67.375ZM118.547 67.7031V67.375C118.547 66.6875 118.495 66.0417 118.391 65.4375C118.297 64.8229 118.13 64.2865 117.891 63.8281C117.651 63.3594 117.323 62.9896 116.906 62.7188C116.5 62.4479 115.974 62.3125 115.328 62.3125C114.714 62.3125 114.193 62.4167 113.766 62.625C113.339 62.8333 112.984 63.125 112.703 63.5C112.432 63.875 112.229 64.3229 112.094 64.8438C111.958 65.3542 111.875 65.9167 111.844 66.5312V68.5781C111.875 69.401 112.01 70.1302 112.25 70.7656C112.5 71.3906 112.875 71.8854 113.375 72.25C113.885 72.6042 114.547 72.7812 115.359 72.7812C115.995 72.7812 116.521 72.6562 116.938 72.4062C117.354 72.1562 117.677 71.8021 117.906 71.3438C118.146 70.8854 118.312 70.349 118.406 69.7344C118.5 69.1094 118.547 68.4323 118.547 67.7031ZM130.594 59.0938V76H126.078V59.0938H130.594ZM125.797 54.6875C125.797 54.0312 126.026 53.4896 126.484 53.0625C126.943 52.6354 127.557 52.4219 128.328 52.4219C129.089 52.4219 129.698 52.6354 130.156 53.0625C130.625 53.4896 130.859 54.0312 130.859 54.6875C130.859 55.3438 130.625 55.8854 130.156 56.3125C129.698 56.7396 129.089 56.9531 128.328 56.9531C127.557 56.9531 126.943 56.7396 126.484 56.3125C126.026 55.8854 125.797 55.3438 125.797 54.6875ZM139.062 52V76H134.547V52H139.062ZM147.531 59.0938V76H143.016V59.0938H147.531ZM142.734 54.6875C142.734 54.0312 142.964 53.4896 143.422 53.0625C143.88 52.6354 144.495 52.4219 145.266 52.4219C146.026 52.4219 146.635 52.6354 147.094 53.0625C147.562 53.4896 147.797 54.0312 147.797 54.6875C147.797 55.3438 147.562 55.8854 147.094 56.3125C146.635 56.7396 146.026 56.9531 145.266 56.9531C144.495 56.9531 143.88 56.7396 143.422 56.3125C142.964 55.8854 142.734 55.3438 142.734 54.6875ZM160.375 72.1875V64.6562C160.375 64.1146 160.286 63.651 160.109 63.2656C159.932 62.8698 159.656 62.5625 159.281 62.3438C158.917 62.125 158.443 62.0156 157.859 62.0156C157.359 62.0156 156.927 62.1042 156.562 62.2812C156.198 62.4479 155.917 62.6927 155.719 63.0156C155.521 63.3281 155.422 63.6979 155.422 64.125H150.922C150.922 63.4062 151.089 62.724 151.422 62.0781C151.755 61.4323 152.24 60.8646 152.875 60.375C153.51 59.875 154.266 59.4844 155.141 59.2031C156.026 58.9219 157.016 58.7812 158.109 58.7812C159.422 58.7812 160.589 59 161.609 59.4375C162.63 59.875 163.432 60.5312 164.016 61.4062C164.609 62.2812 164.906 63.375 164.906 64.6875V71.9219C164.906 72.849 164.964 73.6094 165.078 74.2031C165.193 74.7865 165.359 75.2969 165.578 75.7344V76H161.031C160.812 75.5417 160.646 74.9688 160.531 74.2812C160.427 73.5833 160.375 72.8854 160.375 72.1875ZM160.969 65.7031L161 68.25H158.484C157.891 68.25 157.375 68.3177 156.938 68.4531C156.5 68.5885 156.141 68.7812 155.859 69.0312C155.578 69.2708 155.37 69.5521 155.234 69.875C155.109 70.1979 155.047 70.5521 155.047 70.9375C155.047 71.3229 155.135 71.6719 155.312 71.9844C155.49 72.2865 155.745 72.526 156.078 72.7031C156.411 72.8698 156.802 72.9531 157.25 72.9531C157.927 72.9531 158.516 72.8177 159.016 72.5469C159.516 72.276 159.901 71.9427 160.172 71.5469C160.453 71.151 160.599 70.776 160.609 70.4219L161.797 72.3281C161.63 72.7552 161.401 73.1979 161.109 73.6562C160.828 74.1146 160.469 74.5469 160.031 74.9531C159.594 75.349 159.068 75.6771 158.453 75.9375C157.839 76.1875 157.109 76.3125 156.266 76.3125C155.193 76.3125 154.219 76.099 153.344 75.6719C152.479 75.2344 151.792 74.6354 151.281 73.875C150.781 73.1042 150.531 72.2292 150.531 71.25C150.531 70.3646 150.698 69.5781 151.031 68.8906C151.365 68.2031 151.854 67.625 152.5 67.1562C153.156 66.6771 153.974 66.3177 154.953 66.0781C155.932 65.8281 157.068 65.7031 158.359 65.7031H160.969ZM172.875 62.7812V76H168.375V59.0938H172.609L172.875 62.7812ZM177.969 58.9844L177.891 63.1562C177.672 63.125 177.406 63.099 177.094 63.0781C176.792 63.0469 176.516 63.0312 176.266 63.0312C175.63 63.0312 175.078 63.1146 174.609 63.2812C174.151 63.4375 173.766 63.6719 173.453 63.9844C173.151 64.2969 172.922 64.6771 172.766 65.125C172.62 65.5729 172.536 66.0833 172.516 66.6562L171.609 66.375C171.609 65.2812 171.719 64.276 171.938 63.3594C172.156 62.4323 172.474 61.625 172.891 60.9375C173.318 60.25 173.839 59.7188 174.453 59.3438C175.068 58.9688 175.771 58.7812 176.562 58.7812C176.812 58.7812 177.068 58.8021 177.328 58.8438C177.589 58.875 177.802 58.9219 177.969 58.9844ZM184.844 59.0938V76H180.328V59.0938H184.844ZM180.047 54.6875C180.047 54.0312 180.276 53.4896 180.734 53.0625C181.193 52.6354 181.807 52.4219 182.578 52.4219C183.339 52.4219 183.948 52.6354 184.406 53.0625C184.875 53.4896 185.109 54.0312 185.109 54.6875C185.109 55.3438 184.875 55.8854 184.406 56.3125C183.948 56.7396 183.339 56.9531 182.578 56.9531C181.807 56.9531 181.193 56.7396 180.734 56.3125C180.276 55.8854 180.047 55.3438 180.047 54.6875ZM197.688 72.1875V64.6562C197.688 64.1146 197.599 63.651 197.422 63.2656C197.245 62.8698 196.969 62.5625 196.594 62.3438C196.229 62.125 195.755 62.0156 195.172 62.0156C194.672 62.0156 194.24 62.1042 193.875 62.2812C193.51 62.4479 193.229 62.6927 193.031 63.0156C192.833 63.3281 192.734 63.6979 192.734 64.125H188.234C188.234 63.4062 188.401 62.724 188.734 62.0781C189.068 61.4323 189.552 60.8646 190.188 60.375C190.823 59.875 191.578 59.4844 192.453 59.2031C193.339 58.9219 194.328 58.7812 195.422 58.7812C196.734 58.7812 197.901 59 198.922 59.4375C199.943 59.875 200.745 60.5312 201.328 61.4062C201.922 62.2812 202.219 63.375 202.219 64.6875V71.9219C202.219 72.849 202.276 73.6094 202.391 74.2031C202.505 74.7865 202.672 75.2969 202.891 75.7344V76H198.344C198.125 75.5417 197.958 74.9688 197.844 74.2812C197.74 73.5833 197.688 72.8854 197.688 72.1875ZM198.281 65.7031L198.312 68.25H195.797C195.203 68.25 194.688 68.3177 194.25 68.4531C193.812 68.5885 193.453 68.7812 193.172 69.0312C192.891 69.2708 192.682 69.5521 192.547 69.875C192.422 70.1979 192.359 70.5521 192.359 70.9375C192.359 71.3229 192.448 71.6719 192.625 71.9844C192.802 72.2865 193.057 72.526 193.391 72.7031C193.724 72.8698 194.115 72.9531 194.562 72.9531C195.24 72.9531 195.828 72.8177 196.328 72.5469C196.828 72.276 197.214 71.9427 197.484 71.5469C197.766 71.151 197.911 70.776 197.922 70.4219L199.109 72.3281C198.943 72.7552 198.714 73.1979 198.422 73.6562C198.141 74.1146 197.781 74.5469 197.344 74.9531C196.906 75.349 196.38 75.6771 195.766 75.9375C195.151 76.1875 194.422 76.3125 193.578 76.3125C192.505 76.3125 191.531 76.099 190.656 75.6719C189.792 75.2344 189.104 74.6354 188.594 73.875C188.094 73.1042 187.844 72.2292 187.844 71.25C187.844 70.3646 188.01 69.5781 188.344 68.8906C188.677 68.2031 189.167 67.625 189.812 67.1562C190.469 66.6771 191.286 66.3177 192.266 66.0781C193.245 65.8281 194.38 65.7031 195.672 65.7031H198.281Z" fill="white"/>
</g>
</svg>
